<svg xmlns="http://www.w3.org/2000/svg" id="Layer_1" x="0" y="0" version="1.1" viewBox="0 0 240 238" xml:space="preserve">
  <defs/>
  <style>
    .st2{fill:#fff}
  </style>
  <linearGradient id="SVGID_1_" x1="75.5" x2="203.981" y1="225.028" y2="-75.32" gradientTransform="matrix(1 0 0 -1 0 240)" gradientUnits="userSpaceOnUse">
    <stop offset=".159" stop-color="#0dbc9a"/>
    <stop offset="1" stop-color="#92e8d8"/>
  </linearGradient>
  <path fill="url(#SVGID_1_)" d="M10 0h220c5.5 0 10 4.5 10 10v218c0 5.5-4.5 10-10 10H10c-5.5 0-10-4.5-10-10V10C0 4.5 4.5 0 10 0z"/>
  <path fill="#119985" d="M24 184.5c0-13.3 10.7-24 24-24h100c13.3 0 24 10.7 24 24s-10.7 24-24 24H48c-13.3 0-24-10.7-24-24z"/>
  <path d="M51.9 178.6l2.8 8.8h.1l2.8-8.8h2.7l-4 11.6h-3.2l-4-11.6h2.8zM63 180.4c-.4 0-.7-.1-.9-.4-.3-.2-.4-.5-.4-.9 0-.3.1-.6.4-.9.3-.2.6-.4.9-.4.4 0 .7.1.9.4.3.2.4.5.4.9 0 .3-.1.6-.4.9s-.6.4-.9.4zm-1.3 9.9v-8.7h2.4v8.7h-2.4zM70.1 190.4c-.9 0-1.7-.2-2.3-.5-.6-.4-1.1-.9-1.5-1.6-.3-.7-.5-1.5-.5-2.4 0-.9.2-1.7.5-2.4s.8-1.2 1.5-1.6c.6-.4 1.4-.6 2.2-.6.6 0 1.1.1 1.6.3s.9.5 1.3.8c.4.4.7.8.9 1.4.2.6.3 1.2.3 1.9v.7h-7.4V185h5.1c0-.3-.1-.7-.2-.9-.2-.3-.4-.5-.6-.6s-.6-.2-.9-.2c-.4 0-.7.1-1 .3-.3.2-.5.4-.7.7s-.2.6-.2.9v1.4c0 .4.1.8.2 1.1s.4.6.7.7c.3.2.6.3 1.1.3.3 0 .5 0 .7-.1l.6-.3c.2-.1.3-.3.4-.6l2.2.1c-.1.5-.3 1-.7 1.4s-.8.7-1.4.9c-.6.2-1.2.3-1.9.3zM77.4 190.3l-2.4-8.7h2.4l1.4 5.9h.1l1.4-5.9h2.4l1.4 5.8h.1l1.3-5.8H88l-2.4 8.7H83l-1.5-5.5h-.1l-1.5 5.5h-2.5zM100.7 182.4c-.1-.3-.2-.5-.3-.7-.1-.2-.3-.4-.5-.5-.2-.1-.4-.3-.7-.3-.3-.1-.6-.1-.9-.1-.6 0-1.1.1-1.6.4-.4.3-.8.7-1 1.3s-.4 1.2-.4 2.1.1 1.5.4 2.1c.2.6.6 1 1 1.3.5.3 1 .4 1.6.4.6 0 1-.1 1.4-.3.4-.2.7-.5.9-.8.2-.4.3-.8.3-1.3l.5.1h-3V184h4.9v1.5c0 1-.2 1.9-.6 2.6-.4.7-1 1.3-1.8 1.7-.8.4-1.6.6-2.6.6-1.1 0-2-.2-2.9-.7-.8-.5-1.5-1.2-1.9-2.1-.5-.9-.7-2-.7-3.2 0-.9.1-1.8.4-2.5.3-.7.7-1.4 1.2-1.9s1.1-.9 1.7-1.2c.7-.3 1.4-.4 2.1-.4.7 0 1.3.1 1.8.3.6.2 1.1.5 1.5.8.4.3.8.8 1.1 1.2.3.5.5 1 .5 1.6h-2.4zM110.7 186.5v-5h2.4v8.7h-2.3v-1.6h-.1c-.2.5-.5.9-1 1.2s-1 .5-1.7.5c-.6 0-1.1-.1-1.5-.4-.4-.3-.8-.6-1-1.1-.2-.5-.4-1.1-.4-1.8v-5.6h2.4v5.1c0 .5.1.9.4 1.2.3.3.6.4 1.1.4.3 0 .6-.1.8-.2.3-.1.5-.3.6-.6.3 0 .3-.4.3-.8zM116.3 180.4c-.4 0-.7-.1-.9-.4-.3-.2-.4-.5-.4-.9 0-.3.1-.6.4-.9.3-.2.6-.4.9-.4.4 0 .7.1.9.4.3.2.4.5.4.9 0 .3-.1.6-.4.9s-.5.4-.9.4zm-1.2 9.9v-8.7h2.4v8.7h-2.4zM122.7 190.4c-.7 0-1.3-.2-1.8-.5s-1-.8-1.3-1.5c-.3-.7-.5-1.5-.5-2.5s.2-1.8.5-2.5.8-1.2 1.3-1.5c.5-.3 1.1-.5 1.8-.5.5 0 .9.1 1.2.2.3.2.6.4.8.6.2.2.4.5.5.7h.1v-4.4h2.4v11.6h-2.4v-1.4h-.1c-.1.2-.3.5-.5.7-.2.2-.5.4-.8.6-.4.3-.8.4-1.2.4zm.7-1.9c.4 0 .7-.1 1-.3.3-.2.5-.5.6-.9.1-.4.2-.8.2-1.4 0-.5-.1-1-.2-1.4s-.4-.7-.6-.9c-.3-.2-.6-.3-1-.3s-.7.1-1 .3-.5.5-.6.9c-.1.4-.2.8-.2 1.3s.1 1 .2 1.3c.1.4.3.7.6.9s.6.5 1 .5zM133.6 190.4c-.9 0-1.7-.2-2.3-.5s-1.1-.9-1.5-1.6c-.3-.7-.5-1.5-.5-2.4 0-.9.2-1.7.5-2.4s.8-1.2 1.5-1.6c.6-.4 1.4-.6 2.2-.6.6 0 1.1.1 1.6.3s.9.5 1.3.8c.4.4.7.8.9 1.4.2.6.3 1.2.3 1.9v.7h-7.4V185h5.1c0-.3-.1-.7-.2-.9-.2-.3-.4-.5-.6-.6-.3-.2-.6-.2-.9-.2-.4 0-.7.1-1 .3s-.5.4-.7.7-.2.6-.2.9v1.4c0 .4.1.8.2 1.1s.4.6.7.7c.3.2.6.3 1.1.3.3 0 .5 0 .7-.1l.6-.3c.2-.2.3-.3.4-.6l2.2.1c-.1.5-.3 1-.7 1.4-.4.4-.8.7-1.4.9-.6.2-1.2.3-1.9.3zM146.4 184l-2.2.1c0-.2-.1-.4-.2-.5s-.3-.3-.5-.4c-.2-.1-.4-.1-.7-.1-.4 0-.7.1-.9.2-.3.2-.4.4-.4.6 0 .2.1.4.2.5.2.1.5.3.9.3l1.6.3c.8.2 1.5.5 1.9.8.4.4.6.9.6 1.5s-.2 1.1-.5 1.5c-.3.4-.8.8-1.4 1-.6.2-1.3.4-2 .4-1.2 0-2.1-.2-2.8-.7-.7-.5-1.1-1.1-1.2-2l2.4-.1c.1.4.2.6.5.8.3.2.6.3 1.1.3.4 0 .8-.1 1-.2.3-.2.4-.4.4-.6 0-.2-.1-.4-.3-.5-.2-.1-.5-.3-.8-.3l-1.5-.3c-.9-.2-1.5-.5-1.9-.9-.4-.4-.6-1-.6-1.6 0-.6.2-1 .5-1.4.3-.4.7-.7 1.3-.9s1.2-.3 2-.3c1.1 0 2 .2 2.6.7.5.4.8 1 .9 1.8z" class="st2"/>
  <g>
    <path d="M25.6 59V44.4h9v1.9h-6.8v4.4H34v1.9h-6.2V59h-2.2zM41.7 59.2c-1 0-1.9-.2-2.7-.7-.8-.5-1.4-1.1-1.8-2-.4-.8-.6-1.8-.6-3 0-1.1.2-2.1.6-3 .4-.8 1-1.5 1.8-2s1.7-.7 2.7-.7c1 0 1.9.2 2.7.7s1.4 1.1 1.8 2c.4.8.6 1.8.6 3 0 1.1-.2 2.1-.6 3-.4.8-1 1.5-1.8 2s-1.6.7-2.7.7zm0-1.8c.7 0 1.2-.2 1.6-.5.4-.4.8-.8 1-1.4.2-.6.3-1.2.3-1.9s-.1-1.3-.3-1.9c-.2-.6-.5-1.1-1-1.4-.4-.4-1-.5-1.6-.5-.7 0-1.2.2-1.7.5-.4.4-.8.8-1 1.4s-.3 1.2-.3 1.9.1 1.3.3 1.9.5 1 1 1.4c.5.3 1.1.5 1.7.5zM51.3 44.4V59h-2.1V44.4h2.1zM56.3 44.4V59h-2.1V44.4h2.1zM63.7 59.2c-1 0-1.9-.2-2.7-.7-.8-.5-1.4-1.1-1.8-2-.4-.8-.6-1.8-.6-3 0-1.1.2-2.1.6-3 .4-.8 1-1.5 1.8-2s1.7-.7 2.7-.7c1 0 1.9.2 2.7.7s1.4 1.1 1.8 2c.4.8.6 1.8.6 3 0 1.1-.2 2.1-.6 3-.4.8-1 1.5-1.8 2s-1.6.7-2.7.7zm.1-1.8c.7 0 1.2-.2 1.6-.5.4-.4.8-.8 1-1.4.2-.6.3-1.2.3-1.9s-.1-1.3-.3-1.9c-.2-.6-.5-1.1-1-1.4-.4-.4-1-.5-1.6-.5-.7 0-1.2.2-1.7.5-.4.4-.8.8-1 1.4s-.3 1.2-.3 1.9.1 1.3.3 1.9.5 1 1 1.4c.4.3 1 .5 1.7.5zM73.6 59l-3.2-10.9h2.2l2.1 8h.1l2.1-8h2.2l2.1 8h.1l2.1-8h2.2L82.5 59h-2.2l-2.2-7.9h-.2L75.7 59h-2.1zM92.4 46.3v-1.9h11.3v1.9h-4.5V59H97V46.3h-4.6zM108.1 52.5V59H106V44.4h2.1v5.4h.1c.3-.6.6-1.1 1.2-1.4.5-.3 1.2-.5 2.1-.5.7 0 1.4.2 2 .5.6.3 1 .8 1.3 1.4.3.6.5 1.4.5 2.3V59h-2.1v-6.7c0-.8-.2-1.4-.6-1.9-.4-.4-1-.7-1.7-.7-.5 0-1 .1-1.3.3-.4.2-.7.5-.9.9-.5.5-.6 1-.6 1.6zM122.7 59.2c-1.1 0-2-.2-2.8-.7-.8-.5-1.4-1.1-1.8-2s-.6-1.8-.6-3c0-1.1.2-2.1.6-3 .4-.9 1-1.5 1.8-2s1.6-.7 2.7-.7c.6 0 1.2.1 1.8.3.6.2 1.1.5 1.6 1 .5.4.8 1 1.1 1.7.3.7.4 1.5.4 2.5v.8h-8.7v-1.6h6.6c0-.6-.1-1.1-.3-1.5-.2-.4-.5-.8-1-1-.4-.3-.9-.4-1.4-.4-.6 0-1.1.1-1.6.4-.4.3-.8.7-1 1.1-.2.5-.4 1-.4 1.5V54c0 .7.1 1.3.4 1.9.3.5.6.9 1.1 1.2.5.3 1 .4 1.6.4.4 0 .8-.1 1.1-.2.3-.1.6-.3.9-.5.2-.2.4-.5.6-.9l2 .4c-.2.6-.4 1.1-.9 1.6s-.9.8-1.6 1c-.6.2-1.4.3-2.2.3zM145.1 49c-.1-.4-.3-.8-.5-1.2s-.5-.6-.8-.9c-.3-.2-.7-.4-1.1-.6-.4-.1-.8-.2-1.3-.2-.8 0-1.6.2-2.2.6s-1.2 1-1.6 1.9c-.4.8-.6 1.8-.6 3s.2 2.2.6 3c.4.8.9 1.4 1.6 1.9.7.4 1.4.6 2.3.6.8 0 1.5-.2 2.1-.5.6-.3 1-.8 1.4-1.4.3-.6.5-1.3.5-2.1l.6.1h-4.2v-1.8h5.7v1.7c0 1.2-.3 2.3-.8 3.2-.5.9-1.2 1.6-2.1 2.1s-2 .7-3.1.7c-1.3 0-2.5-.3-3.5-.9-1-.6-1.8-1.5-2.3-2.6-.6-1.1-.8-2.4-.8-4 0-1.2.2-2.2.5-3.1s.8-1.7 1.4-2.4c.6-.6 1.3-1.1 2.1-1.5s1.7-.5 2.6-.5c.8 0 1.5.1 2.2.3.7.2 1.3.6 1.8 1s1 .9 1.3 1.5c.3.6.6 1.2.7 1.9h-2.5zM157 54.4V48h2.1v11H157v-1.9h-.1c-.3.6-.7 1.1-1.2 1.5-.6.4-1.2.6-2.1.6-.7 0-1.3-.2-1.9-.5-.5-.3-1-.8-1.3-1.4s-.5-1.4-.5-2.3v-6.9h2.1v6.7c0 .7.2 1.3.6 1.8s.9.7 1.6.7c.4 0 .8-.1 1.2-.3.4-.2.7-.5 1-.9.5-.5.6-1 .6-1.7zM163 46.4c-.4 0-.7-.1-.9-.4s-.4-.5-.4-.9.1-.6.4-.9.6-.4.9-.4.7.1.9.4.4.5.4.9-.1.6-.4.9-.5.4-.9.4zM162 59V48.1h2.1V59H162zM171 59.2c-.9 0-1.7-.2-2.4-.7-.7-.5-1.2-1.1-1.6-1.9-.4-.8-.6-1.9-.6-3 0-1.2.2-2.2.6-3 .4-.8.9-1.5 1.6-1.9.7-.4 1.5-.7 2.4-.7.7 0 1.2.1 1.6.3.4.2.7.5 1 .8.2.3.4.6.5.8h.1v-5.4h2.1V59h-2.1v-1.7h-.2c-.1.2-.3.5-.6.8s-.6.6-1 .8c-.2.2-.7.3-1.4.3zm.5-1.8c.6 0 1.1-.2 1.6-.5s.7-.8 1-1.4c.2-.6.3-1.2.3-2s-.1-1.4-.3-2c-.2-.6-.5-1-1-1.3-.4-.3-.9-.5-1.6-.5-.6 0-1.2.2-1.6.5-.4.3-.7.8-1 1.4-.2.6-.3 1.2-.3 1.9s.1 1.4.3 2 .5 1 1 1.4c.4.3 1 .5 1.6.5zM184.2 59.2c-1.1 0-2-.2-2.8-.7-.8-.5-1.4-1.1-1.8-2s-.6-1.8-.6-3c0-1.1.2-2.1.6-3 .4-.9 1-1.5 1.8-2s1.6-.7 2.7-.7c.6 0 1.2.1 1.8.3.6.2 1.1.5 1.6 1 .5.4.8 1 1.1 1.7.3.7.4 1.5.4 2.5v.8h-8.7v-1.6h6.6c0-.6-.1-1.1-.3-1.5-.2-.4-.5-.8-1-1-.4-.3-.9-.4-1.4-.4-.6 0-1.1.1-1.6.4-.4.3-.8.7-1 1.1-.2.5-.4 1-.4 1.5V54c0 .7.1 1.3.4 1.9.3.5.6.9 1.1 1.2.5.3 1 .4 1.6.4.4 0 .8-.1 1.1-.2.3-.1.6-.3.9-.5.2-.2.4-.5.6-.9l2 .4c-.2.6-.4 1.1-.9 1.6s-.9.8-1.6 1c-.7.2-1.4.3-2.2.3zM199.4 50.7l-1.9.3c-.1-.2-.2-.5-.4-.7s-.4-.4-.7-.5c-.3-.1-.7-.2-1.1-.2-.6 0-1.1.1-1.5.4-.4.3-.6.6-.6 1s.1.7.4.9c.3.2.7.4 1.3.5l1.7.4c1 .2 1.8.6 2.2 1.1.5.5.7 1.1.7 1.9 0 .7-.2 1.2-.6 1.7-.4.5-.9.9-1.6 1.2-.7.3-1.4.4-2.3.4-1.2 0-2.2-.3-3-.8-.8-.5-1.2-1.3-1.4-2.2l2.1-.3c.1.5.4.9.8 1.2.4.3.9.4 1.6.4.7 0 1.3-.1 1.7-.4s.6-.6.6-1.1c0-.3-.1-.6-.4-.9s-.6-.4-1.2-.5l-1.8-.4c-1-.2-1.8-.6-2.3-1.1-.5-.5-.7-1.1-.7-1.9 0-.6.2-1.2.5-1.7.4-.5.9-.9 1.5-1.1.6-.3 1.4-.4 2.2-.4 1.2 0 2.1.3 2.8.8s1.2 1.2 1.4 2z" class="st2"/>
  </g>
  <g>
    <path d="M24.5 97.3h-1.4l4-10.9h1.4l4 10.9h-1.4l-3.3-9.2h-.1l-3.2 9.2zm.5-4.2h5.6v1.2H25v-1.2zM44 91l-1.1.3-.3-.6c-.1-.2-.3-.3-.6-.4s-.5-.2-.9-.2c-.5 0-.9.1-1.2.3-.3.2-.5.5-.5.9 0 .3.1.6.3.7.2.2.6.3 1.1.5l1.2.3c.7.2 1.3.4 1.6.8.4.4.5.8.5 1.4 0 .5-.1.9-.4 1.3-.3.4-.6.7-1.1.9-.5.2-1 .3-1.7.3-.8 0-1.5-.2-2.1-.5-.5-.4-.9-.9-1-1.6l1.2-.3c.1.4.3.8.6 1 .3.2.7.3 1.2.3.6 0 1.1-.1 1.4-.4.3-.3.5-.6.5-.9 0-.3-.1-.5-.3-.7-.2-.2-.5-.3-.9-.4l-1.4-.3c-.7-.2-1.3-.5-1.6-.8-.4-.4-.5-.8-.5-1.4 0-.5.1-.9.4-1.2s.6-.6 1.1-.8c.5-.2 1-.3 1.5-.3.8 0 1.4.2 1.9.5.6.2.9.7 1.1 1.3zM46.1 100.4V89.2h1.2v1.3h.1c.1-.1.2-.3.4-.5s.4-.4.7-.6c.3-.2.7-.3 1.3-.3.7 0 1.3.2 1.8.5s.9.8 1.2 1.5c.3.6.4 1.4.4 2.2 0 .9-.1 1.6-.4 2.3-.3.6-.7 1.1-1.2 1.5-.5.3-1.1.5-1.8.5-.5 0-.9-.1-1.3-.3s-.6-.4-.7-.6c-.2-.2-.3-.4-.4-.6h-.1v4.3h-1.2zm1.2-7.2c0 .6.1 1.2.3 1.6.2.5.4.8.8 1.1s.8.4 1.3.4 1-.1 1.3-.4c.4-.3.6-.7.8-1.1.2-.5.3-1 .3-1.6 0-.6-.1-1.1-.3-1.6s-.4-.8-.8-1.1c-.4-.3-.8-.4-1.3-.4s-.9.1-1.3.4-.6.6-.8 1.1c-.2.5-.3 1-.3 1.6zM58.6 97.5c-.8 0-1.5-.2-2-.5-.6-.4-1-.8-1.3-1.5a5.09 5.09 0 010-4.4c.3-.6.7-1.1 1.3-1.5.6-.4 1.2-.5 1.9-.5.4 0 .8.1 1.3.2.4.1.8.4 1.1.7s.6.7.8 1.3c.2.5.3 1.2.3 1.9v.5h-6.3v-1.1h5c0-.5-.1-.9-.3-1.2-.2-.4-.4-.6-.8-.9-.3-.2-.7-.3-1.2-.3s-.9.1-1.3.4c-.4.2-.6.6-.8 1-.2.4-.3.8-.3 1.3v.7c0 .6.1 1.1.3 1.6.2.4.5.8.9 1 .4.2.8.3 1.3.3.3 0 .6 0 .9-.1.3-.1.5-.2.7-.4s.3-.4.5-.7l1.2.3c-.1.4-.3.8-.6 1.1-.3.3-.7.6-1.1.7s-.9.1-1.5.1zM67.3 97.5c-.8 0-1.4-.2-2-.5-.6-.4-1-.9-1.3-1.5s-.4-1.4-.4-2.2c0-.8.2-1.6.5-2.2.3-.6.7-1.1 1.3-1.5.6-.4 1.2-.5 1.9-.5.6 0 1.1.1 1.6.3.5.2.8.5 1.1.9.3.4.5.8.5 1.3h-1.3c-.1-.4-.3-.7-.6-1-.3-.3-.8-.4-1.3-.4s-.9.1-1.3.4-.7.6-.9 1.1c-.2.5-.3 1-.3 1.6 0 .6.1 1.2.3 1.7s.5.8.9 1.1c.4.3.8.4 1.3.4.3 0 .6-.1.9-.2.3-.1.5-.3.7-.5.2-.2.3-.5.4-.8h1.3c-.1.5-.2.9-.5 1.3s-.6.7-1.1.9c-.6.2-1.1.3-1.7.3zM73 87.8c-.2 0-.5-.1-.6-.3s-.3-.4-.3-.6.1-.4.3-.6.4-.3.6-.3c.2 0 .5.1.6.3s.3.4.3.6-.1.4-.3.6-.4.3-.6.3zm-.7 9.5v-8.2h1.3v8.2h-1.3zM79.5 89.2v1.1h-4.4v-1.1h4.4zm-3.1 8.1V88c0-.5.1-.9.3-1.2s.5-.5.9-.7.7-.2 1.1-.2c.3 0 .6 0 .8.1s.3.1.4.1l-.4 1.1c-.1 0-.2 0-.3-.1h-.4c-.4 0-.7.1-.9.3-.2.2-.3.5-.3.9v9h-1.2zM81.9 87.8c-.2 0-.5-.1-.6-.3s-.3-.3-.3-.6.1-.4.3-.6.4-.3.6-.3c.2 0 .5.1.6.3s.3.4.3.6-.1.4-.3.6-.3.3-.6.3zm-.6 9.5v-8.2h1.3v8.2h-1.3zM88.2 97.5c-.8 0-1.4-.2-2-.5-.6-.4-1-.9-1.3-1.5s-.4-1.4-.4-2.2c0-.8.2-1.6.5-2.2.3-.6.7-1.1 1.3-1.5.6-.4 1.2-.5 1.9-.5.6 0 1.1.1 1.6.3.5.2.8.5 1.1.9.3.4.5.8.5 1.3h-1.3c-.1-.4-.3-.7-.6-1-.3-.3-.8-.4-1.3-.4s-.9.1-1.3.4-.7.6-.9 1.1c-.2.5-.3 1-.3 1.6 0 .6.1 1.2.3 1.7s.5.8.9 1.1c.4.3.8.4 1.3.4.3 0 .6-.1.9-.2.3-.1.5-.3.7-.5.2-.2.3-.5.4-.8h1.3c-.1.5-.2.9-.5 1.3s-.6.7-1.1.9c-.6.2-1.1.3-1.7.3zM104.3 100.4H103v-4.3h-.1c-.1.1-.2.3-.4.6-.2.2-.4.4-.7.6s-.7.3-1.3.3c-.7 0-1.3-.2-1.8-.5s-.9-.8-1.2-1.5c-.3-.6-.4-1.4-.4-2.3 0-.9.1-1.6.4-2.2.3-.6.7-1.1 1.2-1.5.5-.3 1.1-.5 1.8-.5.5 0 1 .1 1.3.3s.5.4.7.6c.2.2.3.4.4.5h.1v-1.3h1.2v11.2zm-1.3-7.2c0-.6-.1-1.1-.3-1.6-.2-.5-.4-.8-.8-1.1-.3-.3-.8-.4-1.3-.4s-1 .1-1.3.4c-.4.3-.6.6-.8 1.1s-.3 1-.3 1.6c0 .6.1 1.1.3 1.6.2.5.4.9.8 1.1.4.3.8.4 1.3.4s.9-.1 1.3-.4.6-.6.8-1.1c.2-.4.3-.9.3-1.6zM111.7 94v-4.8h1.3v8.2h-1.3V96h-.1c-.2.4-.5.8-.9 1.1s-.9.4-1.5.4c-.5 0-1-.1-1.4-.3-.4-.2-.7-.6-.9-1-.2-.5-.3-1-.3-1.7v-5.2h1.3v5.1c0 .6.2 1.1.5 1.4s.8.5 1.3.5c.3 0 .6-.1 1-.2.3-.2.6-.4.8-.7.1-.5.2-.9.2-1.4zM118.7 97.5c-.8 0-1.5-.2-2-.5-.6-.4-1-.8-1.3-1.5a5.09 5.09 0 010-4.4c.3-.6.7-1.1 1.3-1.5.6-.4 1.2-.5 1.9-.5.4 0 .8.1 1.3.2.4.1.8.4 1.1.7.3.3.6.7.8 1.3.2.5.3 1.2.3 1.9v.5h-6.3v-1.1h5c0-.5-.1-.9-.3-1.2s-.4-.6-.8-.9c-.3-.2-.7-.3-1.2-.3s-.9.1-1.3.4c-.4.2-.6.6-.8 1-.2.4-.3.8-.3 1.3v.7c0 .6.1 1.1.3 1.6.2.4.5.8.9 1 .4.2.8.3 1.3.3.3 0 .6 0 .9-.1.3-.1.5-.2.7-.4s.3-.4.5-.7l1.2.3c-.1.4-.3.8-.6 1.1-.3.3-.7.6-1.1.7-.4 0-.9.1-1.5.1zM129.8 91l-1.1.3-.3-.6c-.1-.2-.3-.3-.6-.4s-.5-.2-.9-.2c-.5 0-.9.1-1.2.3-.3.2-.5.5-.5.9 0 .3.1.6.3.7.2.2.6.3 1.1.5l1.2.3c.7.2 1.3.4 1.6.8.4.4.5.8.5 1.4 0 .5-.1.9-.4 1.3-.3.4-.6.7-1.1.9-.5.2-1 .3-1.7.3-.8 0-1.5-.2-2.1-.5-.5-.4-.9-.9-1-1.6l1.2-.3c.1.4.3.8.6 1 .3.2.7.3 1.2.3.6 0 1.1-.1 1.4-.4.3-.3.5-.6.5-.9 0-.3-.1-.5-.3-.7-.2-.2-.5-.3-.9-.4l-1.4-.3c-.8-.2-1.3-.5-1.6-.8-.3-.4-.5-.8-.5-1.4 0-.5.1-.9.4-1.2s.6-.6 1.1-.8c.5-.2 1-.3 1.5-.3.8 0 1.4.2 1.9.5.6.2.9.7 1.1 1.3zM135.4 89.2v1.1h-4.2v-1.1h4.2zm-3-2h1.3V95c0 .4.1.6.2.8.1.2.2.3.4.4s.3.1.5.1h.5l.3 1.1c-.1 0-.2.1-.4.1s-.3.1-.6.1c-.4 0-.7-.1-1-.2s-.6-.4-.8-.7c-.2-.3-.3-.7-.3-1.2v-8.3zM138 87.8c-.2 0-.5-.1-.6-.3s-.3-.4-.3-.6.1-.4.3-.6.4-.3.6-.3.5.1.6.3.3.4.3.6-.1.4-.3.6-.4.3-.6.3zm-.7 9.5v-8.2h1.3v8.2h-1.3zM144.2 97.5c-.7 0-1.4-.2-1.9-.5-.6-.4-1-.8-1.3-1.5-.3-.6-.5-1.4-.5-2.2 0-.9.2-1.6.5-2.2.3-.6.7-1.1 1.3-1.5.6-.4 1.2-.5 1.9-.5s1.4.2 1.9.5 1 .8 1.3 1.5.5 1.4.5 2.2c0 .8-.2 1.6-.5 2.2-.3.6-.7 1.1-1.3 1.5s-1.2.5-1.9.5zm0-1.1c.6 0 1-.1 1.4-.4s.6-.7.8-1.1c.2-.5.3-1 .3-1.5s-.1-1.1-.3-1.5c-.2-.5-.4-.9-.8-1.1-.4-.3-.8-.4-1.4-.4-.6 0-1 .1-1.4.4-.4.3-.6.7-.8 1.1-.2.5-.3 1-.3 1.5s.1 1.1.3 1.5.4.8.8 1.1.8.4 1.4.4zM151.1 92.4v4.9h-1.3v-8.2h1.2v1.3h.1c.2-.4.5-.8.9-1 .4-.3.9-.4 1.5-.4s1 .1 1.5.3c.4.2.7.6 1 1 .2.5.3 1 .3 1.7v5.2H155v-5.1c0-.6-.2-1.1-.5-1.5-.3-.4-.8-.5-1.4-.5-.4 0-.8.1-1.1.3-.3.2-.6.4-.7.8-.1.3-.2.7-.2 1.2zM160.2 94.3c0-.7.1-1.3.2-1.7.1-.4.3-.7.6-1 .2-.2.5-.5.9-.7.2-.1.4-.3.6-.5s.3-.4.4-.6c.1-.2.1-.5.1-.8 0-.3-.1-.6-.2-.9-.2-.3-.4-.5-.7-.6-.3-.1-.6-.2-.9-.2-.3 0-.6.1-.8.2s-.5.3-.7.6c-.2.3-.3.6-.3 1h-1.3c0-.6.2-1.1.5-1.6.3-.4.7-.8 1.1-1 .5-.2 1-.3 1.6-.3.6 0 1.2.1 1.6.4.5.2.8.6 1.1 1s.4.9.4 1.5c0 .4-.1.7-.2 1.1-.1.3-.3.6-.5.8s-.5.5-.8.7c-.3.2-.6.4-.8.6s-.3.5-.4.8c-.1.3-.1.7-.1 1.1v.1h-1.4zm.7 3.1c-.3 0-.5-.1-.7-.3-.2-.2-.3-.4-.3-.7s.1-.5.3-.7c.2-.2.4-.3.7-.3s.5.1.7.3c.2.2.3.4.3.7 0 .2 0 .3-.1.5-.1.1-.2.3-.3.3s-.4.2-.6.2zM170 87.6v-1.2h8.2v1.2h-3.4v9.7h-1.3v-9.7H170zM182.5 97.5c-.5 0-1-.1-1.4-.3-.4-.2-.8-.5-1-.9-.2-.4-.4-.8-.4-1.4 0-.5.1-.8.3-1.1s.4-.5.7-.7c.3-.2.7-.3 1-.4.4-.1.8-.1 1.1-.2.5-.1.9-.1 1.2-.1s.5-.1.7-.2c.1-.1.2-.2.2-.4 0-.5-.1-.9-.4-1.2-.3-.3-.7-.4-1.3-.4-.6 0-1.1.1-1.4.4s-.6.5-.7.8l-1.2-.4c.2-.5.5-.9.9-1.2.4-.3.7-.5 1.2-.6.4-.1.8-.2 1.3-.2.3 0 .6 0 .9.1.3.1.7.2 1 .4.3.2.6.5.8.9.2.4.3.9.3 1.6v5.4H185v-1.1h-.1c-.1.2-.2.4-.4.6-.2.2-.5.4-.8.5-.4.1-.8.1-1.2.1zm.2-1.1c.5 0 .9-.1 1.3-.3s.6-.4.8-.8.3-.6.3-1v-1.2c-.1.1-.2.1-.3.2-.2.1-.4.1-.6.1-.2 0-.5.1-.7.1-.2 0-.4 0-.5.1-.3 0-.6.1-.9.2-.3.1-.5.2-.7.4-.2.2-.3.4-.3.8s.2.8.5 1c.1.3.6.4 1.1.4zM188.5 97.3V86.4h1.3v10.9h-1.3zm1.2-2.9v-1.6h.3l3.6-3.6h1.6l-3.8 3.9h-.1l-1.6 1.3zm4 2.9l-3.2-4 .9-.9 3.9 4.9h-1.6zM200.1 97.5c-.8 0-1.5-.2-2-.5-.6-.4-1-.8-1.3-1.5a5.09 5.09 0 010-4.4c.3-.6.7-1.1 1.3-1.5.6-.4 1.2-.5 1.9-.5.4 0 .8.1 1.3.2.4.1.8.4 1.1.7.3.3.6.7.8 1.3.2.5.3 1.2.3 1.9v.5h-6.3v-1.1h5c0-.5-.1-.9-.3-1.2s-.4-.6-.8-.9c-.3-.2-.7-.3-1.2-.3s-.9.1-1.3.4c-.4.2-.6.6-.8 1-.2.4-.3.8-.3 1.3v.7c0 .6.1 1.1.3 1.6.2.4.5.8.9 1 .4.2.8.3 1.3.3.3 0 .6 0 .9-.1.3-.1.5-.2.7-.4s.3-.4.5-.7l1.2.3c-.1.4-.3.8-.6 1.1-.3.3-.7.6-1.1.7-.4 0-.9.1-1.5.1zM26.3 118.5c-.5 0-1-.1-1.4-.3-.4-.2-.8-.5-1-.9-.2-.4-.4-.8-.4-1.4 0-.5.1-.8.3-1.1s.4-.5.7-.7c.3-.2.7-.3 1-.4.4-.1.8-.1 1.1-.2.5-.1.9-.1 1.2-.1.3 0 .5-.1.7-.2.1-.1.2-.2.2-.4 0-.5-.1-.9-.4-1.2-.3-.3-.7-.4-1.3-.4-.6 0-1.1.1-1.4.4s-.6.5-.7.8l-1.2-.4c.2-.5.5-.9.9-1.2s.7-.5 1.2-.6.8-.2 1.3-.2c.3 0 .6 0 .9.1.3.1.7.2 1 .4.3.2.6.5.8.9.2.4.3.9.3 1.6v5.4h-1.3v-1.1h-.1c-.1.2-.2.4-.4.6-.2.2-.5.4-.8.5-.4.1-.8.1-1.2.1zm.2-1.1c.5 0 .9-.1 1.3-.3s.6-.4.8-.8.3-.6.3-1v-1.2c-.1.1-.2.1-.3.2-.2.1-.4.1-.6.1-.2 0-.5.1-.7.1-.2 0-.4 0-.5.1-.3 0-.6.1-.9.2-.3.1-.5.2-.7.4-.2.2-.3.4-.3.8s.2.8.5 1c.1.3.6.4 1.1.4zM37.8 107.4v10.9h-1.3v-10.9h1.3zM43.4 118.5c-.7 0-1.4-.2-1.9-.5s-1-.8-1.3-1.5c-.3-.6-.5-1.4-.5-2.2 0-.9.2-1.6.5-2.2.3-.6.7-1.1 1.3-1.5s1.2-.5 1.9-.5 1.4.2 1.9.5 1 .8 1.3 1.5a5.09 5.09 0 010 4.4c-.3.6-.7 1.1-1.3 1.5s-1.1.5-1.9.5zm0-1.1c.6 0 1-.1 1.4-.4s.6-.7.8-1.1c.2-.5.3-1 .3-1.5s-.1-1.1-.3-1.5c-.2-.5-.4-.9-.8-1.1-.4-.3-.8-.4-1.4-.4-.6 0-1 .1-1.4.4-.4.3-.6.7-.8 1.1-.2.5-.3 1-.3 1.5s.1 1.1.3 1.5.4.8.8 1.1.9.4 1.4.4zM52.4 118.5c-.7 0-1.4-.2-1.9-.5s-1-.8-1.3-1.5c-.3-.6-.5-1.4-.5-2.2 0-.9.2-1.6.5-2.2.3-.6.7-1.1 1.3-1.5s1.2-.5 1.9-.5 1.4.2 1.9.5 1 .8 1.3 1.5a5.09 5.09 0 010 4.4c-.3.6-.7 1.1-1.3 1.5s-1.2.5-1.9.5zm0-1.1c.6 0 1-.1 1.4-.4s.6-.7.8-1.1c.2-.5.3-1 .3-1.5s-.1-1.1-.3-1.5c-.2-.5-.4-.9-.8-1.1-.4-.3-.8-.4-1.4-.4-.6 0-1 .1-1.4.4-.4.3-.6.7-.8 1.1-.2.5-.3 1-.3 1.5s.1 1.1.3 1.5.4.8.8 1.1.8.4 1.4.4zM58 118.3v-10.9h1.3v10.9H58zm1.2-2.9v-1.6h.3l3.6-3.6h1.6l-3.8 3.9h-.1l-1.6 1.3zm4 2.9l-3.2-4 .9-.9 3.9 4.9h-1.6zM72.8 118.5c-.5 0-1-.1-1.4-.3-.4-.2-.8-.5-1-.9-.2-.4-.4-.8-.4-1.4 0-.5.1-.8.3-1.1s.4-.5.7-.7c.3-.2.7-.3 1-.4.4-.1.8-.1 1.1-.2.5-.1.9-.1 1.2-.1.3 0 .5-.1.7-.2.1-.1.2-.2.2-.4 0-.5-.1-.9-.4-1.2-.3-.3-.7-.4-1.3-.4-.6 0-1.1.1-1.4.4s-.6.5-.7.8l-1.2-.4c.2-.5.5-.9.9-1.2s.7-.5 1.2-.6.8-.2 1.3-.2c.3 0 .6 0 .9.1.3.1.7.2 1 .4.3.2.6.5.8.9.2.4.3.9.3 1.6v5.4h-1.3v-1.1h-.1c-.1.2-.2.4-.4.6-.2.2-.5.4-.8.5-.3.1-.7.1-1.2.1zm.2-1.1c.5 0 .9-.1 1.3-.3s.6-.4.8-.8.3-.6.3-1v-1.2c-.1.1-.2.1-.3.2-.2.1-.4.1-.6.1-.2 0-.5.1-.7.1-.2 0-.4 0-.5.1-.3 0-.6.1-.9.2-.3.1-.5.2-.7.4-.2.2-.3.4-.3.8s.2.8.5 1c.2.3.6.4 1.1.4zM82.4 110.2v1.1h-4.2v-1.1h4.2zm-3-2h1.3v7.8c0 .4.1.6.2.8.1.2.2.3.4.4.2.1.3.1.5.1h.5l.3 1.1c-.1 0-.2.1-.4.1s-.3.1-.6.1c-.4 0-.7-.1-1-.2-.3-.2-.6-.4-.8-.7-.2-.3-.3-.7-.3-1.2v-8.3zM92.1 110.2v1.1h-4.2v-1.1h4.2zm-3-2h1.3v7.8c0 .4.1.6.2.8.1.2.2.3.4.4.2.1.3.1.5.1h.5l.3 1.1c-.1 0-.2.1-.4.1s-.3.1-.6.1c-.4 0-.7-.1-1-.2-.3-.2-.6-.4-.8-.7-.2-.3-.3-.7-.3-1.2v-8.3zM95.2 113.4v4.9H94v-10.9h1.3v4h.1c.2-.4.5-.8.9-1 .4-.3.9-.4 1.5-.4s1 .1 1.5.3c.4.2.7.6 1 1 .2.5.3 1 .3 1.7v5.2h-1.3v-5.1c0-.6-.2-1.2-.5-1.5-.3-.4-.8-.5-1.4-.5-.4 0-.8.1-1.1.3-.3.2-.6.4-.8.8-.2.3-.3.7-.3 1.2zM106.3 118.5c-.8 0-1.5-.2-2-.5-.6-.4-1-.8-1.3-1.5a5.09 5.09 0 010-4.4c.3-.6.7-1.1 1.3-1.5.6-.4 1.2-.5 1.9-.5.4 0 .8.1 1.3.2.4.1.8.4 1.1.7s.6.7.8 1.3c.2.5.3 1.2.3 1.9v.5h-6.3v-1.1h5c0-.5-.1-.9-.3-1.2-.2-.4-.4-.6-.8-.9-.3-.2-.7-.3-1.2-.3s-.9.1-1.3.4c-.4.2-.6.6-.8 1-.2.4-.3.8-.3 1.3v.7c0 .6.1 1.1.3 1.6.2.4.5.8.9 1 .4.2.8.3 1.3.3.3 0 .6 0 .9-.1.3-.1.5-.2.7-.4s.3-.4.5-.7l1.2.3c-.1.4-.3.8-.6 1.1-.3.3-.7.6-1.1.7s-1 .1-1.5.1zM119.1 121.6c-.6 0-1.1-.1-1.6-.2-.4-.2-.8-.4-1.1-.6-.3-.2-.5-.5-.7-.8l1-.7c.1.1.3.3.4.5.2.2.4.4.7.5.3.1.7.2 1.2.2.7 0 1.2-.2 1.6-.5.4-.3.6-.8.6-1.5v-1.7h-.1c-.1.1-.2.3-.4.6-.2.2-.4.4-.7.6-.3.2-.7.3-1.3.3-.7 0-1.3-.2-1.8-.5s-.9-.8-1.2-1.4c-.3-.6-.5-1.3-.5-2.2 0-.8.1-1.6.4-2.2.3-.6.7-1.1 1.2-1.4s1.1-.5 1.8-.5c.5 0 1 .1 1.3.3.3.2.6.4.7.6.2.2.3.4.4.5h.1v-1.3h1.2v8.4c0 .7-.2 1.3-.5 1.7-.3.4-.7.8-1.3 1-.2.2-.8.3-1.4.3zm-.1-4.5c.5 0 .9-.1 1.3-.3.3-.2.6-.6.8-1 .2-.4.3-1 .3-1.6 0-.6-.1-1.1-.3-1.6-.2-.5-.4-.8-.8-1.1-.3-.3-.8-.4-1.3-.4s-1 .1-1.3.4c-.4.3-.6.6-.8 1.1s-.3 1-.3 1.5c0 .6.1 1.1.3 1.5.2.4.4.8.8 1 .4.4.8.5 1.3.5zM130.1 115v-4.8h1.3v8.2h-1.3V117h-.1c-.2.4-.5.8-.9 1.1-.4.3-.9.4-1.5.4-.5 0-1-.1-1.4-.3-.4-.2-.7-.6-.9-1-.2-.5-.3-1-.3-1.7v-5.2h1.3v5.1c0 .6.2 1.1.5 1.4s.8.5 1.3.5c.3 0 .6-.1 1-.2.3-.2.6-.4.8-.7.1-.5.2-.9.2-1.4zM134.3 108.8c-.2 0-.5-.1-.6-.3s-.3-.4-.3-.6.1-.4.3-.6.4-.3.6-.3.5.1.6.3.3.4.3.6-.1.4-.3.6-.4.3-.6.3zm-.7 9.5v-8.2h1.3v8.2h-1.3zM140.3 118.5c-.7 0-1.3-.2-1.8-.5s-.9-.8-1.2-1.5c-.3-.6-.4-1.4-.4-2.3 0-.9.1-1.6.4-2.2.3-.6.7-1.1 1.2-1.5.5-.3 1.1-.5 1.8-.5.5 0 1 .1 1.3.3s.5.4.7.6c.2.2.3.4.4.5h.1v-4h1.3v10.9h-1.2V117h-.1c-.1.1-.2.3-.4.6-.2.2-.4.4-.7.6-.5.2-.9.3-1.4.3zm.2-1.1c.5 0 .9-.1 1.3-.4.3-.3.6-.6.8-1.1.2-.5.3-1 .3-1.6 0-.6-.1-1.1-.3-1.6-.2-.5-.4-.8-.8-1.1-.3-.3-.8-.4-1.3-.4s-1 .1-1.3.4c-.4.3-.6.6-.8 1.1s-.3 1-.3 1.6c0 .6.1 1.1.3 1.6.2.5.4.9.8 1.1s.7.4 1.3.4zM149.9 118.5c-.8 0-1.5-.2-2-.5-.6-.4-1-.8-1.3-1.5a5.09 5.09 0 010-4.4c.3-.6.7-1.1 1.3-1.5.6-.4 1.2-.5 1.9-.5.4 0 .8.1 1.3.2.4.1.8.4 1.1.7.3.3.6.7.8 1.3.2.5.3 1.2.3 1.9v.5H147v-1.1h5c0-.5-.1-.9-.3-1.2s-.4-.6-.8-.9c-.3-.2-.7-.3-1.2-.3s-.9.1-1.3.4c-.4.2-.6.6-.8 1-.2.4-.3.8-.3 1.3v.7c0 .6.1 1.1.3 1.6.2.4.5.8.9 1 .4.2.8.3 1.3.3.3 0 .6 0 .9-.1.3-.1.5-.2.7-.4s.3-.4.5-.7l1.2.3c-.1.4-.3.8-.6 1.1-.3.3-.7.6-1.1.7-.4 0-.9.1-1.5.1zM161 112l-1.1.3-.3-.6c-.1-.2-.3-.3-.6-.4s-.5-.2-.9-.2c-.5 0-.9.1-1.2.3-.3.2-.5.5-.5.9 0 .3.1.6.3.7.2.2.6.3 1.1.5l1.2.3c.7.2 1.3.4 1.6.8.4.4.5.8.5 1.4 0 .5-.1.9-.4 1.3-.3.4-.6.7-1.1.9-.5.2-1 .3-1.7.3-.8 0-1.5-.2-2.1-.5-.5-.4-.9-.9-1-1.6l1.2-.3c.1.4.3.8.6 1 .3.2.7.3 1.2.3.6 0 1.1-.1 1.4-.4.3-.3.5-.6.5-.9 0-.3-.1-.5-.3-.7-.2-.2-.5-.3-.9-.4l-1.4-.3c-.8-.2-1.3-.5-1.6-.8-.3-.4-.5-.8-.5-1.4 0-.5.1-.9.4-1.2s.6-.6 1.1-.8c.5-.2 1-.3 1.5-.3.8 0 1.4.2 1.9.5.6.2.9.7 1.1 1.3zM164 118.4c-.3 0-.5-.1-.7-.3-.2-.2-.3-.4-.3-.7s.1-.5.3-.7c.2-.2.4-.3.7-.3s.5.1.7.3c.2.2.3.4.3.7 0 .2 0 .3-.1.5-.1.1-.2.3-.3.3s-.4.2-.6.2z" class="st2"/>
  </g>
</svg>
