<svg xmlns="http://www.w3.org/2000/svg" id="Layer_1" x="0" y="0" version="1.1" viewBox="0 0 240 238" xml:space="preserve">
  <defs/>
  <style>
    .st2{fill:#fff}
  </style>
  <linearGradient id="SVGID_1_" x1="75.5" x2="203.981" y1="225.028" y2="-75.32" gradientTransform="matrix(1 0 0 -1 0 240)" gradientUnits="userSpaceOnUse">
    <stop offset=".159" stop-color="#3880ff"/>
    <stop offset="1" stop-color="#8fbaf9"/>
  </linearGradient>
  <path fill="url(#SVGID_1_)" d="M10 0h220c5.5 0 10 4.5 10 10v218c0 5.5-4.5 10-10 10H10c-5.5 0-10-4.5-10-10V10C0 4.5 4.5 0 10 0z"/>
  <path fill="#3728b7" d="M24 181c0-13.3 10.7-24 24-24h100c13.3 0 24 10.7 24 24s-10.7 24-24 24H48c-13.3 0-24-10.7-24-24z"/>
  <path d="M58.6 179.1H61c-.4-2.6-2.6-4.4-5.5-4.4-3.4 0-6 2.5-6 6.7 0 4.1 2.5 6.7 6.1 6.7 3.2 0 5.6-2.1 5.6-5.5V181h-5.3v1.9h3c0 1.9-1.3 3-3.3 3-2.2 0-3.7-1.6-3.7-4.6 0-2.9 1.5-4.6 3.6-4.6 1.6.2 2.6 1 3.1 2.4zm9 9.1c2.3 0 3.9-1.1 4.3-2.8l-2.2-.2c-.3.8-1.1 1.3-2.1 1.3-1.5 0-2.5-1-2.5-2.7H72v-.8c0-3.4-2.1-5-4.5-5-2.8 0-4.6 2.1-4.6 5.1-.1 3.1 1.8 5.1 4.7 5.1zm-2.5-6c.1-1.3 1-2.3 2.4-2.3 1.3 0 2.2 1 2.2 2.3h-4.6zm13.7-4h-1.9v-2.4h-2.3v2.4h-1.4v1.8h1.4v5.5c0 1.8 1.3 2.8 3.1 2.7.7 0 1.1-.1 1.4-.2l-.4-1.8c-.1 0-.4.1-.7.1-.6 0-1-.2-1-1.1V180h1.9v-1.8zm14.2 2.6c-.3-1.7-1.6-2.7-4-2.7s-4 1.2-4 3c0 1.4.9 2.4 2.8 2.8l1.7.4c.9.2 1.3.6 1.3 1.1 0 .7-.7 1.2-1.8 1.2s-1.8-.5-1.9-1.3l-2.3.2c.3 1.8 1.8 2.9 4.2 2.9 2.5 0 4.2-1.3 4.2-3.1 0-1.4-.9-2.3-2.8-2.7l-1.7-.4c-1-.2-1.4-.6-1.4-1.1 0-.7.7-1.1 1.7-1.1 1.1 0 1.6.6 1.8 1.2l2.2-.4zm7-2.6h-1.9v-2.4h-2.3v2.4h-1.4v1.8h1.4v5.5c0 1.8 1.3 2.8 3.1 2.7.7 0 1.1-.1 1.4-.2l-.4-1.8c-.1 0-.4.1-.7.1-.6 0-1-.2-1-1.1V180h1.9v-1.8zm4.8 10c1.5 0 2.5-.7 2.9-1.5h.1v1.3h2.2v-6.6c0-2.6-2.1-3.4-4-3.4-2.1 0-3.6.9-4.2 2.7l2.2.3c.2-.7.9-1.2 2-1.2s1.7.5 1.7 1.5c0 .7-.7.7-2.4.9-1.9.2-3.7.8-3.7 3-.1 2 1.3 3 3.2 3zm.6-1.7c-1 0-1.7-.4-1.7-1.3s.8-1.3 1.8-1.4c.6-.1 1.8-.2 2.1-.5v1.2c.1 1.1-.8 2-2.2 2zm6.9 1.5h2.3v-5.8c0-1.2.9-2.1 2.2-2.1.4 0 .9.1 1.1.1v-2.1c-.2 0-.6-.1-.8-.1-1.1 0-2.1.6-2.4 1.8h-.1v-1.6h-2.2v9.8zm12.6-9.8H123v-2.4h-2.3v2.4h-1.4v1.8h1.4v5.5c0 1.8 1.3 2.8 3.1 2.7.7 0 1.1-.1 1.4-.2l-.4-1.8c-.1 0-.4.1-.7.1-.6 0-1-.2-1-1.1V180h1.9v-1.8zm6.1 10c2.3 0 3.9-1.1 4.3-2.8l-2.2-.2c-.3.8-1.1 1.3-2.1 1.3-1.5 0-2.5-1-2.5-2.7h6.8v-.8c0-3.4-2.1-5-4.5-5-2.8 0-4.6 2.1-4.6 5.1.1 3.1 1.9 5.1 4.8 5.1zm-2.4-6c.1-1.3 1-2.3 2.4-2.3 1.3 0 2.2 1 2.2 2.3h-4.6zm12.4 6c1.7 0 2.4-1 2.8-1.7h.1v1.5h2.3v-13.1h-2.3v4.9h-.1c-.4-.7-1.1-1.8-2.8-1.8-2.3 0-4.1 1.8-4.1 5.1.1 3.2 1.8 5.1 4.1 5.1zm.6-1.9c-1.5 0-2.3-1.3-2.3-3.2 0-1.8.8-3.1 2.3-3.1 1.5 0 2.3 1.2 2.3 3.1s-.8 3.2-2.3 3.2zM25.7 59V43.7H28v6.6h7.6v-6.6h2.3V59h-2.3v-6.7H28V59h-2.3zM46 59.2c-1.1 0-2.1-.2-2.9-.7-.8-.5-1.4-1.2-1.9-2.1-.4-.9-.7-1.9-.7-3.1 0-1.2.2-2.2.7-3.1.4-.9 1.1-1.6 1.8-2.1.8-.5 1.7-.8 2.8-.8.6 0 1.3.1 1.9.3.6.2 1.2.5 1.6 1 .5.5.9 1.1 1.1 1.8.3.7.4 1.6.4 2.7v.8h-9.1v-1.7h6.9c0-.6-.1-1.1-.4-1.6-.2-.5-.6-.8-1-1.1-.4-.3-.9-.4-1.5-.4s-1.2.2-1.6.5-.8.7-1.1 1.2-.4 1-.4 1.6v1.3c0 .8.1 1.4.4 2 .3.5.6.9 1.1 1.2.5.3 1.1.4 1.7.4.4 0 .8-.1 1.2-.2.3-.1.6-.3.9-.5.3-.2.4-.5.6-.9l2.1.4c-.2.6-.5 1.2-.9 1.6-.4.5-1 .8-1.6 1.1-.5.3-1.2.4-2.1.4zM55.6 43.7V59h-2.2V43.7h2.2zM60.9 43.7V59h-2.2V43.7h2.2zM68.7 59.2c-1.1 0-2-.2-2.8-.7-.8-.5-1.4-1.2-1.9-2.1-.4-.9-.7-1.9-.7-3.1 0-1.2.2-2.2.7-3.1.4-.9 1.1-1.6 1.9-2.1.8-.5 1.7-.7 2.8-.7 1.1 0 2 .2 2.8.7.8.5 1.4 1.2 1.9 2.1.4.9.7 1.9.7 3.1 0 1.2-.2 2.2-.7 3.1-.4.9-1.1 1.6-1.9 2.1-.8.4-1.7.7-2.8.7zm0-1.9c.7 0 1.3-.2 1.7-.6.5-.4.8-.9 1-1.5.2-.6.3-1.3.3-2s-.1-1.4-.3-2c-.2-.6-.6-1.1-1-1.5-.5-.4-1-.6-1.7-.6s-1.3.2-1.7.6c-.5.4-.8.9-1 1.5-.2.6-.3 1.3-.3 2s.1 1.4.3 2c.2.6.6 1.1 1 1.5.4.4 1 .6 1.7.6zM85.3 59L81 43.7h2.4l3 11.8h.1l3.1-11.8H92l3.1 11.8h.1l3-11.8h2.4L96.4 59h-2.3l-3.2-11.4h-.1L87.6 59h-2.3zM107.4 59.2c-1.1 0-2-.2-2.8-.7-.8-.5-1.4-1.2-1.9-2.1-.4-.9-.7-1.9-.7-3.1 0-1.2.2-2.2.7-3.1.4-.9 1.1-1.6 1.9-2.1.8-.5 1.7-.7 2.8-.7 1.1 0 2 .2 2.8.7.8.5 1.4 1.2 1.9 2.1.4.9.7 1.9.7 3.1 0 1.2-.2 2.2-.7 3.1-.4.9-1.1 1.6-1.9 2.1-.7.4-1.7.7-2.8.7zm.1-1.9c.7 0 1.3-.2 1.7-.6.5-.4.8-.9 1-1.5.2-.6.3-1.3.3-2s-.1-1.4-.3-2c-.2-.6-.6-1.1-1-1.5-.5-.4-1-.6-1.7-.6s-1.3.2-1.7.6c-.5.4-.8.9-1 1.5-.2.6-.3 1.3-.3 2s.1 1.4.3 2c.2.6.6 1.1 1 1.5.4.4 1 .6 1.7.6zM115.3 59V47.5h2.2v1.8h.1c.2-.6.6-1.1 1.1-1.5s1.1-.5 1.8-.5h1v2.1c-.1 0-.2-.1-.5-.1h-.7c-.5 0-1 .1-1.4.3-.4.2-.7.5-1 .9-.2.4-.4.8-.4 1.3v7h-2.2zM125.6 43.7V59h-2.2V43.7h2.2zM132.9 59.2c-.9 0-1.7-.2-2.5-.7-.7-.5-1.3-1.2-1.7-2-.4-.9-.6-1.9-.6-3.2 0-1.2.2-2.3.6-3.2s1-1.6 1.7-2c.7-.5 1.5-.7 2.5-.7.7 0 1.3.1 1.7.4.4.2.8.5 1 .8.2.3.4.6.6.8h.1v-5.7h2.2V59h-2.2v-1.8h-.2c-.1.2-.3.5-.6.8-.3.3-.6.6-1 .8-.4.3-.9.4-1.6.4zm.4-1.9c.6 0 1.2-.2 1.6-.5.4-.3.8-.8 1-1.4s.3-1.3.3-2.1-.1-1.5-.3-2.1-.6-1.1-1-1.4-1-.5-1.6-.5c-.7 0-1.2.2-1.7.5-.4.3-.8.8-1 1.4s-.3 1.3-.3 2c0 .8.1 1.5.3 2.1s.6 1.1 1 1.5 1.1.5 1.7.5z" class="st2"/>
  <g>
    <path d="M24.1 98.1V86.4h1.4v10.4h5.4V98h-6.8zM36.6 98.2c-.8 0-1.6-.2-2.2-.6s-1.1-.9-1.4-1.6-.5-1.5-.5-2.3.2-1.7.5-2.4.8-1.2 1.4-1.6 1.3-.6 2.1-.6c.5 0 .9.1 1.3.2.4.2.8.4 1.2.7.4.3.7.8.9 1.3.2.6.3 1.2.3 2.1v.6h-6.7v-1h5.4c0-.5-.1-.9-.3-1.3-.2-.4-.5-.7-.8-.9-.4-.2-.8-.3-1.3-.3s-1 .1-1.4.4c-.4.3-.7.6-.9 1-.2.4-.3.9-.3 1.4v.7c0 .7.1 1.2.3 1.7.2.5.5.8 1 1 .4.2.9.4 1.4.4.4 0 .7 0 1-.2.3-.1.5-.3.7-.5.2-.2.4-.5.5-.8l1.3.4c-.1.4-.4.8-.7 1.2-.3.3-.7.6-1.2.8s-1 .2-1.6.2zM44.8 98.3c-.6 0-1.1-.1-1.5-.3-.5-.2-.8-.5-1.1-.9-.3-.4-.4-.9-.4-1.5 0-.5.1-.9.3-1.2.2-.3.5-.6.8-.7.3-.2.7-.3 1.1-.4.4-.1.8-.2 1.2-.2.5-.1 1-.1 1.3-.2s.6-.1.7-.2c.2-.1.2-.2.2-.5 0-.6-.2-1-.5-1.3-.3-.3-.8-.5-1.4-.5-.6 0-1.1.1-1.5.4s-.6.6-.8.9l-1.3-.5c.2-.5.5-.9.9-1.2.4-.3.8-.5 1.2-.6.5-.1.9-.2 1.3-.2.3 0 .6 0 1 .1s.7.2 1.1.4c.3.2.6.5.9.9.2.4.3 1 .3 1.7v5.8h-1.3v-1.2h-.1c-.1.2-.2.4-.5.6-.2.2-.5.4-.8.6-.1.1-.6.2-1.1.2zm.2-1.2c.5 0 1-.1 1.3-.3s.6-.5.8-.8.3-.7.3-1v-1.2c-.1.1-.2.1-.4.2s-.4.1-.7.1c-.2 0-.5.1-.7.1s-.4.1-.6.1c-.3 0-.7.1-1 .2-.3.1-.5.2-.7.4s-.3.5-.3.8c0 .5.2.8.5 1.1.6.1 1 .3 1.5.3zM51.3 98.1v-8.7h1.3v1.3h.1c.2-.4.4-.8.9-1.1.4-.3.9-.4 1.4-.4h.7v1.4s-.1 0-.3-.1h-.5c-.4 0-.8.1-1.1.3-.3.2-.6.4-.8.7s-.3.7-.3 1.1v5.5h-1.4zM58.6 92.8V98h-1.3v-8.7h1.3v1.4h.1c.2-.4.5-.8.9-1.1.4-.3 1-.4 1.6-.4.6 0 1.1.1 1.6.4.4.2.8.6 1 1.1s.4 1.1.4 1.8V98h-1.3v-5.5c0-.7-.2-1.2-.5-1.6s-.8-.6-1.5-.6c-.4 0-.8.1-1.1.3-.3.2-.6.5-.8.8s-.4.9-.4 1.4zM72.4 92.8V98h-1.3V86.4h1.3v4.3h.1c.2-.5.5-.8.9-1.1s1-.4 1.6-.4c.6 0 1.1.1 1.6.4s.8.6 1 1.1.4 1.1.4 1.9v5.5h-1.3v-5.5c0-.7-.2-1.2-.5-1.6-.4-.4-.9-.6-1.5-.6-.4 0-.8.1-1.2.3s-.6.5-.8.8c-.2.4-.3.8-.3 1.3zM84.1 98.2c-.8 0-1.5-.2-2.1-.6s-1.1-.9-1.4-1.6-.5-1.5-.5-2.4c0-.9.2-1.7.5-2.4s.8-1.2 1.4-1.6 1.3-.6 2.1-.6 1.5.2 2.1.6 1.1.9 1.4 1.6c.3.7.5 1.5.5 2.4 0 .9-.2 1.7-.5 2.4s-.8 1.2-1.4 1.6-1.3.6-2.1.6zm0-1.2c.6 0 1.1-.2 1.5-.5s.7-.7.9-1.2.3-1 .3-1.6c0-.6-.1-1.1-.3-1.6s-.5-.9-.9-1.2-.9-.5-1.5-.5-1.1.2-1.5.5-.7.7-.9 1.2-.3 1-.3 1.6c0 .6.1 1.1.3 1.6s.5.9.9 1.2.9.5 1.5.5zM92.1 98.1l-2.7-8.7h1.4l1.9 6.7h.1l1.9-6.7h1.4l1.8 6.7h.1l1.9-6.7h1.4l-2.7 8.7h-1.3l-1.9-6.7h-.1l-1.9 6.7h-1.3zM111.4 89.3v1.1h-4.5v-1.1h4.5zm-3.2-2.1h1.3v8.3c0 .4.1.7.2.8l.4.4c.2.1.4.1.6.1H111.3l.3 1.2c-.1 0-.2.1-.4.1s-.4.1-.6.1c-.4 0-.7-.1-1.1-.2-.4-.2-.7-.4-.9-.7s-.4-.8-.4-1.3v-8.8zM117 98.2c-.8 0-1.5-.2-2.1-.6-.6-.4-1.1-.9-1.4-1.6-.3-.7-.5-1.5-.5-2.4 0-.9.2-1.7.5-2.4s.8-1.2 1.4-1.6c.6-.4 1.3-.6 2.1-.6s1.5.2 2.1.6 1.1.9 1.4 1.6c.3.7.5 1.5.5 2.4 0 .9-.2 1.7-.5 2.4s-.8 1.2-1.4 1.6-1.4.6-2.1.6zm0-1.2c.6 0 1.1-.2 1.5-.5s.7-.7.9-1.2c.2-.5.3-1 .3-1.6 0-.6-.1-1.1-.3-1.6-.2-.5-.5-.9-.9-1.2s-.9-.5-1.5-.5-1.1.2-1.5.5c-.4.3-.7.7-.9 1.2s-.3 1-.3 1.6c0 .6.1 1.1.3 1.6s.5.9.9 1.2c.4.4.9.5 1.5.5zM131 101.5c-.6 0-1.2-.1-1.7-.2-.5-.2-.9-.4-1.2-.6-.3-.3-.6-.6-.7-.9l1.1-.8c.1.2.3.3.5.5s.4.4.8.5c.3.2.7.2 1.3.2.7 0 1.3-.2 1.7-.5s.7-.9.7-1.6v-1.8h-.1c-.1.2-.2.4-.4.6s-.4.4-.8.6c-.3.2-.8.3-1.4.3-.7 0-1.3-.2-1.9-.5-.6-.3-1-.8-1.3-1.5-.3-.6-.5-1.4-.5-2.3 0-.9.2-1.7.5-2.3.3-.7.8-1.2 1.3-1.5.6-.4 1.2-.5 1.9-.5.6 0 1 .1 1.4.3s.6.4.8.6c.2.2.3.4.4.6h.1v-1.4h1.3v9c0 .8-.2 1.4-.5 1.8-.3.5-.8.8-1.4 1s-1.2.4-1.9.4zm-.1-4.8c.5 0 1-.1 1.4-.4.4-.2.7-.6.8-1.1.2-.5.3-1 .3-1.7 0-.6-.1-1.2-.3-1.7-.2-.5-.5-.9-.8-1.1-.4-.3-.8-.4-1.4-.4-.6 0-1 .1-1.4.4-.4.3-.7.7-.8 1.2s-.3 1-.3 1.6c0 .6.1 1.1.3 1.6s.5.8.9 1.1.8.5 1.3.5zM140.9 98.2c-.8 0-1.6-.2-2.2-.6-.6-.4-1.1-.9-1.4-1.6-.3-.7-.5-1.5-.5-2.3s.2-1.7.5-2.4.8-1.2 1.4-1.6 1.3-.6 2.1-.6c.5 0 .9.1 1.3.2.4.2.8.4 1.2.7.4.3.7.8.9 1.3.2.6.3 1.2.3 2.1v.6h-6.7v-1h5.4c0-.5-.1-.9-.3-1.3-.2-.4-.5-.7-.8-.9-.4-.2-.8-.3-1.3-.3s-1 .1-1.4.4c-.4.3-.7.6-.9 1s-.3.9-.3 1.4v.7c0 .7.1 1.2.3 1.7s.5.8 1 1 .9.4 1.4.4c.4 0 .7 0 1-.2.3-.1.5-.3.7-.5.2-.2.4-.5.5-.8l1.3.4c-.1.4-.4.8-.7 1.2-.3.3-.7.6-1.2.8-.5.2-1 .2-1.6.2zM150.3 89.3v1.1h-4.5v-1.1h4.5zm-3.2-2.1h1.3v8.3c0 .4.1.7.2.8.1.2.3.3.4.4.2.1.4.1.6.1H150.2l.3 1.2c-.1 0-.2.1-.4.1s-.4.1-.6.1c-.4 0-.7-.1-1.1-.2-.4-.2-.7-.4-.9-.7-.2-.3-.4-.8-.4-1.3v-8.8zM157 98.1V86.4h4.1c.8 0 1.5.1 2 .4.5.3.9.7 1.2 1.1.3.5.4 1 .4 1.6 0 .5-.1.9-.3 1.2s-.4.6-.7.8-.6.3-.9.4v.1c.4 0 .7.1 1.1.4.4.2.7.6.9 1 .2.4.4.9.4 1.6 0 .6-.1 1.1-.4 1.6-.3.5-.7.8-1.3 1.1-.6.3-1.3.4-2.2.4H157zm1.4-6.6h2.6c.4 0 .8-.1 1.2-.2.3-.2.6-.4.8-.7.2-.3.3-.7.3-1.1 0-.5-.2-.9-.5-1.3-.4-.4-.9-.5-1.7-.5h-2.7v3.8zm0 5.3h2.8c.9 0 1.6-.2 2-.5.4-.4.6-.8.6-1.3 0-.4-.1-.8-.3-1.1-.2-.3-.5-.6-.9-.8-.4-.2-.8-.3-1.3-.3h-2.9v4zM170.9 98.2c-.8 0-1.6-.2-2.2-.6-.6-.4-1.1-.9-1.4-1.6-.3-.7-.5-1.5-.5-2.3s.2-1.7.5-2.4.8-1.2 1.4-1.6 1.3-.6 2.1-.6c.5 0 .9.1 1.3.2.4.2.8.4 1.2.7.4.3.7.8.9 1.3.2.6.3 1.2.3 2.1v.6h-6.7v-1h5.4c0-.5-.1-.9-.3-1.3-.2-.4-.5-.7-.8-.9-.4-.2-.8-.3-1.3-.3s-1 .1-1.4.4c-.4.3-.7.6-.9 1s-.3.9-.3 1.4v.7c0 .7.1 1.2.3 1.7s.5.8 1 1 .9.4 1.4.4c.4 0 .7 0 1-.2.3-.1.5-.3.7-.5.2-.2.4-.5.5-.8l1.3.4c-.1.4-.4.8-.7 1.2-.3.3-.7.6-1.2.8-.5.2-1 .2-1.6.2zM179.1 98.3c-.6 0-1.1-.1-1.5-.3-.5-.2-.8-.5-1.1-.9-.3-.4-.4-.9-.4-1.5 0-.5.1-.9.3-1.2.2-.3.5-.6.8-.7.3-.2.7-.3 1.1-.4.4-.1.8-.2 1.2-.2.5-.1 1-.1 1.3-.2s.6-.1.7-.2c.2-.1.2-.2.2-.5 0-.6-.2-1-.5-1.3-.3-.3-.8-.5-1.4-.5-.6 0-1.1.1-1.5.4-.4.3-.6.6-.8.9l-1.3-.5c.2-.5.5-.9.9-1.2.4-.3.8-.5 1.2-.6.5-.1.9-.2 1.3-.2.3 0 .6 0 1 .1s.7.2 1.1.4c.3.2.6.5.9.9.2.4.3 1 .3 1.7v5.8h-1.3v-1.2h-.1c-.1.2-.2.4-.5.6s-.5.4-.8.6c-.1.1-.6.2-1.1.2zm.2-1.2c.5 0 1-.1 1.3-.3s.6-.5.8-.8.3-.7.3-1v-1.2c-.1.1-.2.1-.4.2s-.3 0-.5 0-.5.1-.7.1c-.2 0-.4.1-.6.1-.3 0-.7.1-1 .2-.3.1-.5.2-.7.4s-.3.5-.3.8c0 .5.2.8.5 1.1s.8.4 1.3.4zM189.1 98.2c-.8 0-1.5-.2-2.1-.6-.6-.4-1-.9-1.4-1.6-.3-.7-.5-1.5-.5-2.3 0-.9.2-1.7.5-2.3.3-.7.8-1.2 1.4-1.6s1.3-.6 2.1-.6c.6 0 1.2.1 1.7.3s.9.5 1.2 1 .5.9.6 1.4h-1.3c-.1-.4-.3-.8-.7-1.1s-.8-.5-1.4-.5c-.5 0-1 .1-1.4.4-.4.3-.7.7-.9 1.1-.2.5-.3 1.1-.3 1.7 0 .7.1 1.3.3 1.8.2.5.5.9.9 1.2.4.3.9.4 1.4.4.3 0 .7-.1.9-.2s.5-.3.7-.5c.2-.2.3-.5.4-.8h1.3c-.1.5-.3 1-.6 1.4-.3.4-.7.7-1.2 1-.3.3-.9.4-1.6.4zM198.1 98.2c-.8 0-1.5-.2-2.1-.6-.6-.4-1.1-.9-1.4-1.6-.3-.7-.5-1.5-.5-2.4 0-.9.2-1.7.5-2.4s.8-1.2 1.4-1.6c.6-.4 1.3-.6 2.1-.6s1.5.2 2.1.6 1.1.9 1.4 1.6c.3.7.5 1.5.5 2.4 0 .9-.2 1.7-.5 2.4s-.8 1.2-1.4 1.6-1.3.6-2.1.6zm0-1.2c.6 0 1.1-.2 1.5-.5s.7-.7.9-1.2c.2-.5.3-1 .3-1.6 0-.6-.1-1.1-.3-1.6-.2-.5-.5-.9-.9-1.2s-.9-.5-1.5-.5-1.1.2-1.5.5c-.4.3-.7.7-.9 1.2s-.3 1-.3 1.6c0 .6.1 1.1.3 1.6s.5.9.9 1.2c.4.4.9.5 1.5.5zM205.4 92.8V98h-1.3v-8.7h1.3v1.4h.1c.2-.4.5-.8.9-1.1.4-.3 1-.4 1.6-.4.6 0 1.1.1 1.6.4.4.2.8.6 1 1.1.2.5.4 1.1.4 1.8V98h-1.3v-5.5c0-.7-.2-1.2-.5-1.6-.4-.4-.8-.6-1.5-.6-.4 0-.8.1-1.1.3s-.6.5-.8.8c-.3.5-.4.9-.4 1.4zM30.1 112.3l-1.2.3-.3-.6c-.1-.2-.3-.3-.6-.5s-.6-.2-1-.2c-.5 0-1 .1-1.3.4-.4.2-.5.6-.5.9 0 .3.1.6.4.8.2.2.6.4 1.1.5l1.3.3c.8.2 1.4.5 1.7.9.4.4.6.9.6 1.5 0 .5-.1.9-.4 1.3s-.7.7-1.2.9c-.5.2-1.1.3-1.8.3-.9 0-1.6-.2-2.2-.6-.6-.4-1-1-1.1-1.7l1.3-.3c.1.5.4.8.7 1.1.3.2.8.4 1.3.4.6 0 1.1-.1 1.5-.4.4-.3.6-.6.6-1 0-.3-.1-.6-.3-.8-.2-.2-.5-.4-1-.5l-1.5-.3c-.8-.2-1.4-.5-1.8-.9-.4-.4-.6-.9-.6-1.5 0-.5.1-.9.4-1.3s.7-.7 1.1-.9 1-.3 1.6-.3c.9 0 1.5.2 2 .6.7.5 1 1 1.2 1.6zM36 119.2c-.8 0-1.6-.2-2.2-.6s-1.1-.9-1.4-1.6-.5-1.5-.5-2.3.2-1.7.5-2.4.8-1.2 1.4-1.6 1.3-.6 2.1-.6c.5 0 .9.1 1.3.2.4.2.8.4 1.2.7.4.3.7.8.9 1.3.2.6.3 1.2.3 2.1v.6h-6.7v-1h5.4c0-.5-.1-.9-.3-1.3-.2-.4-.5-.7-.8-.9-.4-.2-.8-.3-1.3-.3s-1 .1-1.4.4c-.4.3-.7.6-.9 1-.2.4-.3.9-.3 1.4v.8c0 .7.1 1.2.3 1.7.2.5.5.8 1 1 .4.2.9.4 1.4.4.4 0 .7 0 1-.2.3-.1.5-.3.7-.5.2-.2.4-.5.5-.8l1.3.4c-.1.4-.4.8-.7 1.2-.3.3-.7.6-1.2.8s-1 .1-1.6.1zM45.4 110.3v1.1h-4.5v-1.1h4.5zm-3.2-2.1h1.3v8.3c0 .4.1.7.2.8l.4.4c.2.1.4.1.6.1H45.3l.3 1.2c-.1 0-.2.1-.4.1s-.4.1-.6.1c-.4 0-.7-.1-1.1-.2-.4-.2-.7-.4-.9-.7s-.4-.8-.4-1.3v-8.8zM57.4 115.5v-5.2h1.3v8.7h-1.3v-1.5h-.1c-.2.4-.5.8-1 1.1-.4.3-1 .5-1.6.5-.5 0-1-.1-1.5-.4s-.8-.6-1-1.1c-.2-.5-.4-1.1-.4-1.8v-5.5h1.3v5.5c0 .6.2 1.1.5 1.5s.8.6 1.4.6c.3 0 .7-.1 1-.3s.6-.4.9-.8c.4-.3.5-.8.5-1.3zM61.2 122.3v-12h1.3v1.4h.2c.1-.2.2-.3.4-.6s.4-.4.8-.6.8-.3 1.3-.3c.7 0 1.4.2 1.9.6.6.4 1 .9 1.3 1.6.3.7.5 1.5.5 2.4 0 .9-.2 1.7-.5 2.4s-.8 1.2-1.3 1.6c-.6.4-1.2.6-1.9.6-.6 0-1-.1-1.3-.3-.3-.2-.6-.4-.8-.6-.2-.2-.3-.4-.4-.6h-.1v4.6h-1.4zm1.4-7.6c0 .7.1 1.2.3 1.7.2.5.5.9.8 1.2.4.3.8.4 1.4.4.6 0 1-.1 1.4-.4s.7-.7.9-1.2c.2-.5.3-1.1.3-1.7 0-.6-.1-1.2-.3-1.7-.2-.5-.5-.9-.8-1.2-.4-.3-.8-.4-1.4-.4-.5 0-1 .1-1.4.4-.4.3-.7.7-.8 1.1s-.4 1.2-.4 1.8zM76.2 108.9c-.3 0-.5-.1-.7-.3-.2-.2-.3-.4-.3-.6s.1-.5.3-.6.4-.3.7-.3.5.1.7.3.3.4.3.6-.1.5-.3.6c-.2.2-.5.3-.7.3zm-.7 10.2v-8.7h1.3v8.7h-1.3zM80.6 113.8v5.2h-1.3v-8.7h1.3v1.4h.1c.2-.4.5-.8.9-1.1.4-.3 1-.4 1.6-.4.6 0 1.1.1 1.6.4.4.2.8.6 1 1.1s.4 1.1.4 1.8v5.5h-1.3v-5.5c0-.7-.2-1.2-.5-1.6s-.8-.6-1.5-.6c-.4 0-.8.1-1.1.3-.3.2-.6.5-.8.8s-.4.9-.4 1.4zM94 122.3c-.2 0-.4 0-.6-.1s-.3-.1-.4-.1l.3-1.2c.5.1.9.1 1.2 0 .3-.1.6-.5.8-1.2l.2-.7-3.2-8.8h1.5l2.4 7h.1l2.4-7h1.5l-3.7 10c-.2.4-.4.8-.6 1.1-.2.3-.5.5-.9.7-.2.2-.6.3-1 .3zM105.6 119.2c-.8 0-1.5-.2-2.1-.6s-1.1-.9-1.4-1.6-.5-1.5-.5-2.4c0-.9.2-1.7.5-2.4s.8-1.2 1.4-1.6 1.3-.6 2.1-.6 1.5.2 2.1.6 1.1.9 1.4 1.6c.3.7.5 1.5.5 2.4 0 .9-.2 1.7-.5 2.4s-.8 1.2-1.4 1.6-1.3.6-2.1.6zm0-1.2c.6 0 1.1-.2 1.5-.5s.7-.7.9-1.2.3-1 .3-1.6c0-.6-.1-1.1-.3-1.6s-.5-.9-.9-1.2-.9-.5-1.5-.5-1.1.2-1.5.5-.7.7-.9 1.2-.3 1-.3 1.6c0 .6.1 1.1.3 1.6s.5.9.9 1.2.9.5 1.5.5zM117.1 115.5v-5.2h1.3v8.7h-1.3v-1.5h-.1c-.2.4-.5.8-1 1.1-.4.3-1 .5-1.6.5-.5 0-1-.1-1.5-.4s-.8-.6-1-1.1c-.2-.5-.4-1.1-.4-1.8v-5.5h1.3v5.5c0 .6.2 1.1.5 1.5.4.4.8.6 1.4.6.3 0 .7-.1 1-.3s.6-.4.9-.8c.4-.3.5-.8.5-1.3zM120.9 119.1v-8.7h1.3v1.3h.1c.2-.4.4-.8.9-1.1.4-.3.9-.4 1.4-.4h.7v1.4s-.1 0-.3-.1h-.5c-.4 0-.8.1-1.1.3-.3.2-.6.4-.8.7-.2.3-.3.7-.3 1.1v5.5h-1.4zM131.4 122.3v-12h1.3v1.4h.2c.1-.2.2-.3.4-.6s.4-.4.8-.6c.3-.2.8-.3 1.3-.3.7 0 1.4.2 1.9.6.6.4 1 .9 1.3 1.6.3.7.5 1.5.5 2.4 0 .9-.2 1.7-.5 2.4s-.8 1.2-1.3 1.6c-.6.4-1.2.6-1.9.6-.6 0-1-.1-1.3-.3s-.6-.4-.8-.6c-.2-.2-.3-.4-.4-.6h-.1v4.6h-1.4zm1.3-7.6c0 .7.1 1.2.3 1.7s.5.9.8 1.2.8.4 1.4.4c.6 0 1-.1 1.4-.4.4-.3.7-.7.9-1.2s.3-1.1.3-1.7c0-.6-.1-1.2-.3-1.7-.2-.5-.5-.9-.8-1.2-.4-.3-.8-.4-1.4-.4-.5 0-1 .1-1.4.4-.4.3-.7.7-.8 1.1s-.4 1.2-.4 1.8zM141.1 119.1v-8.7h1.3v1.3h.1c.2-.4.4-.8.9-1.1.4-.3.9-.4 1.4-.4h.7v1.4s-.1 0-.3-.1h-.5c-.4 0-.8.1-1.1.3-.3.2-.6.4-.8.7-.2.3-.3.7-.3 1.1v5.5h-1.4zM150.6 119.2c-.8 0-1.5-.2-2.1-.6-.6-.4-1.1-.9-1.4-1.6-.3-.7-.5-1.5-.5-2.4 0-.9.2-1.7.5-2.4s.8-1.2 1.4-1.6c.6-.4 1.3-.6 2.1-.6s1.5.2 2.1.6 1.1.9 1.4 1.6c.3.7.5 1.5.5 2.4 0 .9-.2 1.7-.5 2.4s-.8 1.2-1.4 1.6-1.3.6-2.1.6zm0-1.2c.6 0 1.1-.2 1.5-.5s.7-.7.9-1.2c.2-.5.3-1 .3-1.6 0-.6-.1-1.1-.3-1.6-.2-.5-.5-.9-.9-1.2s-.9-.5-1.5-.5-1.1.2-1.5.5c-.4.3-.7.7-.9 1.2s-.3 1-.3 1.6c0 .6.1 1.1.3 1.6s.5.9.9 1.2c.4.4.9.5 1.5.5zM156.6 110.3h1.3v9.4c0 .5-.1 1-.3 1.4-.2.4-.5.7-.8.9s-.8.3-1.4.3h-.1-.1v-1.2h.2c.4 0 .7-.1.9-.4s.3-.6.3-1v-9.4zm.7-1.4c-.3 0-.5-.1-.7-.3-.2-.2-.3-.4-.3-.6s.1-.5.3-.6.4-.3.7-.3c.3 0 .5.1.7.3s.3.4.3.6-.1.5-.3.6c-.2.2-.5.3-.7.3zM164.1 119.2c-.8 0-1.6-.2-2.2-.6-.6-.4-1.1-.9-1.4-1.6-.3-.7-.5-1.5-.5-2.3s.2-1.7.5-2.4.8-1.2 1.4-1.6 1.3-.6 2.1-.6c.5 0 .9.1 1.3.2.4.2.8.4 1.2.7.4.3.7.8.9 1.3.2.6.3 1.2.3 2.1v.6H161v-1h5.4c0-.5-.1-.9-.3-1.3-.2-.4-.5-.7-.8-.9-.4-.2-.8-.3-1.3-.3s-1 .1-1.4.4c-.4.3-.7.6-.9 1s-.3.9-.3 1.4v.8c0 .7.1 1.2.3 1.7s.5.8 1 1 .9.4 1.4.4c.4 0 .7 0 1-.2.3-.1.5-.3.7-.5.2-.2.4-.5.5-.8l1.3.4c-.1.4-.4.8-.7 1.2-.3.3-.7.6-1.2.8-.5.1-1 .1-1.6.1zM173.3 119.2c-.8 0-1.5-.2-2.1-.6-.6-.4-1-.9-1.4-1.6-.3-.7-.5-1.5-.5-2.3 0-.9.2-1.7.5-2.3.3-.7.8-1.2 1.4-1.6s1.3-.6 2.1-.6c.6 0 1.2.1 1.7.3s.9.5 1.2 1 .5.9.6 1.4h-1.3c-.1-.4-.3-.8-.7-1.1s-.8-.5-1.4-.5c-.5 0-1 .1-1.4.4-.4.3-.7.7-.9 1.1-.2.5-.3 1.1-.3 1.7 0 .7.1 1.3.3 1.8.2.5.5.9.9 1.2.4.3.9.4 1.4.4.3 0 .7-.1.9-.2s.5-.3.7-.5c.2-.2.3-.5.4-.8h1.3c-.1.5-.3 1-.6 1.4-.3.4-.7.7-1.2 1-.4.3-1 .4-1.6.4zM182.4 110.3v1.1h-4.5v-1.1h4.5zm-3.2-2.1h1.3v8.3c0 .4.1.7.2.8.1.2.3.3.4.4.2.1.4.1.6.1H182.3l.3 1.2c-.1 0-.2.1-.4.1s-.4.1-.6.1c-.4 0-.7-.1-1.1-.2-.4-.2-.7-.4-.9-.7-.2-.3-.4-.8-.4-1.3v-8.8zM185.4 119.2c-.3 0-.5-.1-.7-.3-.2-.2-.3-.4-.3-.7s.1-.5.3-.7c.2-.2.4-.3.7-.3s.5.1.7.3c.2.2.3.4.3.7 0 .2 0 .4-.1.5s-.2.3-.4.4-.3.1-.5.1z" class="st2"/>
  </g>
</svg>
