<?xml version="1.0" encoding="utf-8"?>
<!-- Generator: Adobe Illustrator 25.2.3, SVG Export Plug-In . SVG Version: 6.00 Build 0)  -->
<svg version="1.1" id="a1ca2ff0-5833-4c3c-915b-5cf6253aecb1"
	 xmlns="http://www.w3.org/2000/svg" xmlns:xlink="http://www.w3.org/1999/xlink" x="0px" y="0px" viewBox="0 0 140 40"
	 style="enable-background:new 0 0 140 40;" xml:space="preserve">
<style type="text/css">
	.st0{fill:#3880FF;}
	.st1{fill:#FFFFFF;}
</style>
<path class="st0" d="M36.8,18.2v0.7c-0.1,3.4-1,6.7-2.5,9.8c-1.8,2.9-4.3,5.3-7.2,7.1L26.5,36l-1-0.6l-5.7-3.3
	c-0.3-0.2-0.7-0.4-1-0.6l0,0c-0.3-0.2-0.5-0.4-0.8-0.6c-0.6-0.5-1.1-1.1-1.6-1.7c-0.7-0.8-1.2-1.8-1.6-2.8c-0.7-1.8-1-3.7-0.9-5.6
	c0.6-0.3,1.2-0.5,1.8-0.5h0.5c-0.2,1.7,0.1,3.3,0.6,4.9c0.7,2.1,2.2,3.8,4.1,4.9l5.5,3.2l0.4-0.3c2.2-1.5,4-3.4,5.5-5.6
	c1.3-2.5,2-5.2,2.2-8l-2.3-1.4c0.2-0.8,0.3-1.6,0.4-2.4L36.8,18.2z"/>
<path class="st0" d="M30.4,7v7.7c0,0.4,0,0.8-0.1,1.2l0,0c0,0.3-0.1,0.7-0.1,1c-0.1,0.7-0.4,1.5-0.7,2.2c-0.4,1-0.9,1.9-1.6,2.8
	c-1.2,1.5-2.7,2.7-4.4,3.6c-0.7-0.4-1.2-1-1.5-1.8c1.5-0.7,2.8-1.7,3.9-3l0,0c1.4-1.7,2.2-3.8,2.2-6V8.4l-0.5-0.2
	c-2.4-1.1-5-1.8-7.6-1.9c-2.8,0.1-5.6,0.9-8.1,2.1V11c-0.8,0.2-1.5,0.5-2.2,0.9V7l0.6-0.3c3-1.6,6.3-2.5,9.7-2.7
	c3.4,0.2,6.7,1.1,9.7,2.7L30.4,7z"/>
<path class="st0" d="M11.1,16.2l-5.5,3.2c0,0.1,0,0.3,0,0.5c0.2,2.6,0.9,5.2,2.2,7.6c1.5,2.4,3.5,4.4,5.9,5.9L16,32
	c0.6,0.6,1.2,1.1,1.9,1.5L13.6,36l-0.6-0.3c-2.9-1.8-5.4-4.2-7.2-7.1c-1.6-3-2.4-6.4-2.5-9.8v-0.6l1-0.6l5.6-3.3
	c0.3-0.2,0.7-0.4,1.1-0.5c0.3-0.1,0.6-0.3,0.9-0.4c0.7-0.3,1.5-0.4,2.2-0.5c1.1-0.1,2.1-0.1,3.2,0c1.9,0.3,3.7,1,5.3,2
	c0,0.8-0.3,1.5-0.7,2.1c-1.3-1-2.9-1.6-4.5-1.9C15.3,14.7,13.1,15.1,11.1,16.2z"/>
<path class="st1" d="M58.3,21.1c0.7,0.8,1,1.7,1,2.8c0,1.3-0.5,2.5-1.4,3.4c-1.2,0.9-2.6,1.4-4.1,1.3h-6.4V11.3h6.3
	c1.4-0.1,2.8,0.3,3.9,1.1c0.9,0.8,1.4,1.9,1.3,3.1c0.1,1.9-1.2,3.7-3.2,4C56.8,19.8,57.7,20.3,58.3,21.1z M49.6,18.9h3.7
	c0.9,0.1,1.8-0.2,2.5-0.8c0.6-0.5,0.9-1.3,0.9-2.1c0-0.8-0.3-1.5-0.9-2.1c-0.7-0.6-1.7-0.8-2.6-0.8h-3.6V18.9z M56.1,25.9
	c0.7-0.6,1-1.4,1-2.3c0-0.9-0.3-1.7-1-2.2c-0.8-0.6-1.8-0.9-2.7-0.8h-3.7v6.1h3.8C54.3,26.7,55.3,26.4,56.1,25.9L56.1,25.9z"/>
<path class="st1" d="M74.3,22.3H63.6c0,1.3,0.4,2.5,1.3,3.4c0.8,0.8,1.9,1.2,3,1.1c1,0,1.9-0.3,2.7-0.8c0.7-0.5,1.2-1.3,1.3-2.2h2.4
	C74,25.7,72.7,27.3,71,28c-0.9,0.4-2,0.6-3,0.6c-1.2,0-2.4-0.3-3.4-0.8c-1-0.5-1.8-1.4-2.3-2.4c-0.6-1.1-0.9-2.4-0.8-3.6
	c0-1.3,0.3-2.5,0.8-3.6c0.5-1,1.3-1.8,2.3-2.4c1-0.6,2.2-0.8,3.4-0.8c1.2,0,2.4,0.3,3.4,0.8c0.9,0.5,1.7,1.3,2.2,2.2
	c0.5,0.9,0.8,2,0.8,3.1C74.4,21.5,74.3,21.9,74.3,22.3z M71.6,18.7c-0.3-0.6-0.9-1.2-1.5-1.5c-0.7-0.3-1.4-0.5-2.1-0.5
	c-1.1,0-2.2,0.4-3.1,1.1c-0.9,0.9-1.4,2.1-1.3,3.3h8.5C72.2,20.4,72,19.5,71.6,18.7z"/>
<path class="st1" d="M86,15.9c0.9,0.6,1.6,1.6,1.9,2.6v-3.4h2.2v13.4h-2.2v-3.4c-0.3,1.1-1,2-1.9,2.6c-1,0.7-2.1,1-3.3,1
	c-1.1,0-2.2-0.3-3.2-0.8c-0.9-0.6-1.7-1.4-2.2-2.4c-0.6-1.1-0.8-2.4-0.8-3.6c0-1.3,0.2-2.5,0.8-3.6c0.5-1,1.2-1.8,2.2-2.4
	c1-0.6,2.1-0.8,3.2-0.8C83.9,15,85,15.3,86,15.9z M80.1,18.2c-0.9,1-1.3,2.3-1.2,3.6c-0.1,1.3,0.4,2.6,1.2,3.6
	c0.9,0.9,2,1.4,3.3,1.3c0.8,0,1.6-0.2,2.3-0.6c0.7-0.4,1.2-1,1.6-1.7c0.8-1.6,0.8-3.5,0-5.1c-0.4-0.7-0.9-1.3-1.6-1.7
	c-0.7-0.4-1.5-0.6-2.3-0.6C82.1,16.9,80.9,17.4,80.1,18.2L80.1,18.2z"/>
<path class="st1" d="M103.8,16.3c1.1,0.9,1.9,2.2,2.1,3.7h-2.3c-0.1-0.9-0.6-1.7-1.3-2.2c-1.4-1-3.3-1.1-4.8-0.3
	c-0.7,0.4-1.2,1-1.5,1.6c-0.4,0.8-0.6,1.8-0.6,2.7c0,0.9,0.2,1.9,0.6,2.7c0.3,0.7,0.9,1.3,1.5,1.6c1.5,0.8,3.4,0.7,4.8-0.3
	c0.7-0.6,1.2-1.4,1.3-2.3h2.3c-0.2,1.4-0.9,2.7-2.1,3.7c-1.2,0.9-2.7,1.4-4.2,1.4c-1.2,0-2.4-0.3-3.4-0.8c-1-0.6-1.8-1.4-2.3-2.4
	c-0.6-1.1-0.9-2.4-0.8-3.7c0-1.3,0.3-2.5,0.8-3.6c0.5-1,1.3-1.8,2.3-2.4c1.1-0.6,2.2-0.8,3.4-0.8C101.1,14.9,102.6,15.4,103.8,16.3z
	"/>
<path class="st1" d="M118.3,15.8c1,0.5,1.8,1.4,2.4,2.4c0.6,1.1,0.9,2.4,0.9,3.6c0,1.3-0.3,2.5-0.9,3.6c-0.5,1-1.4,1.8-2.4,2.4
	c-2.2,1.1-4.7,1.1-6.9,0c-1-0.5-1.8-1.4-2.4-2.4c-0.6-1.1-0.9-2.4-0.9-3.6c0-1.3,0.3-2.5,0.9-3.6c0.6-1,1.4-1.8,2.4-2.4
	C113.6,14.7,116.1,14.7,118.3,15.8L118.3,15.8z M112.6,17.5c-0.7,0.4-1.3,0.9-1.6,1.6c-0.4,0.8-0.6,1.8-0.6,2.7
	c0,0.9,0.2,1.9,0.6,2.7c0.4,0.7,0.9,1.3,1.6,1.6c1.4,0.7,3,0.7,4.4,0c0.7-0.4,1.3-0.9,1.6-1.6c0.4-0.8,0.6-1.8,0.6-2.7
	c0-0.9-0.2-1.9-0.6-2.7c-0.4-0.7-1-1.3-1.7-1.6C115.6,16.7,114,16.7,112.6,17.5L112.6,17.5z"/>
<path class="st1" d="M135.2,16.4c1,1.2,1.5,2.7,1.4,4.3v7.8h-2.2v-7.6c0.1-1.1-0.3-2.2-1-3.1c-0.7-0.7-1.7-1.1-2.8-1.1
	c-1.1,0-2.2,0.4-2.9,1.2c-0.8,1-1.2,2.2-1.1,3.4v7.1h-2.2V15.1h2.2v3.2c0.3-1,0.9-1.9,1.8-2.5c0.9-0.6,1.9-0.9,3-0.9
	C132.9,14.9,134.2,15.4,135.2,16.4z"/>
</svg>
